%TF.GenerationSoftware,KiCad,Pcbnew,9.0.3*%
%TF.CreationDate,2025-11-02T19:13:38+05:00*%
%TF.ProjectId,zynq-7000-development-board,7a796e71-2d37-4303-9030-2d646576656c,rev?*%
%TF.SameCoordinates,Original*%
%TF.FileFunction,Soldermask,Top*%
%TF.FilePolarity,Negative*%
%FSLAX46Y46*%
G04 Gerber Fmt 4.6, Leading zero omitted, Abs format (unit mm)*
G04 Created by KiCad (PCBNEW 9.0.3) date 2025-11-02 19:13:38*
%MOMM*%
%LPD*%
G01*
G04 APERTURE LIST*
G04 Aperture macros list*
%AMRoundRect*
0 Rectangle with rounded corners*
0 $1 Rounding radius*
0 $2 $3 $4 $5 $6 $7 $8 $9 X,Y pos of 4 corners*
0 Add a 4 corners polygon primitive as box body*
4,1,4,$2,$3,$4,$5,$6,$7,$8,$9,$2,$3,0*
0 Add four circle primitives for the rounded corners*
1,1,$1+$1,$2,$3*
1,1,$1+$1,$4,$5*
1,1,$1+$1,$6,$7*
1,1,$1+$1,$8,$9*
0 Add four rect primitives between the rounded corners*
20,1,$1+$1,$2,$3,$4,$5,0*
20,1,$1+$1,$4,$5,$6,$7,0*
20,1,$1+$1,$6,$7,$8,$9,0*
20,1,$1+$1,$8,$9,$2,$3,0*%
G04 Aperture macros list end*
%ADD10C,1.700000*%
%ADD11R,1.700000X1.700000*%
%ADD12RoundRect,0.375000X-0.375000X0.625000X-0.375000X-0.625000X0.375000X-0.625000X0.375000X0.625000X0*%
%ADD13RoundRect,0.500000X-1.400000X0.500000X-1.400000X-0.500000X1.400000X-0.500000X1.400000X0.500000X0*%
%ADD14RoundRect,0.250000X0.625000X-0.312500X0.625000X0.312500X-0.625000X0.312500X-0.625000X-0.312500X0*%
%ADD15RoundRect,0.250000X-0.625000X0.312500X-0.625000X-0.312500X0.625000X-0.312500X0.625000X0.312500X0*%
%ADD16C,1.600000*%
%ADD17R,2.000000X4.000000*%
%ADD18O,2.000000X3.300000*%
%ADD19O,3.500000X2.000000*%
%ADD20RoundRect,0.250000X0.250000X0.475000X-0.250000X0.475000X-0.250000X-0.475000X0.250000X-0.475000X0*%
%ADD21RoundRect,0.250000X-0.250000X-0.475000X0.250000X-0.475000X0.250000X0.475000X-0.250000X0.475000X0*%
G04 APERTURE END LIST*
D10*
%TO.C,J2*%
X196050000Y-105220000D03*
X196050000Y-107760000D03*
X196050000Y-110300000D03*
X196050000Y-112840000D03*
X196050000Y-115380000D03*
X196050000Y-117920000D03*
X196050000Y-120460000D03*
D11*
X196050000Y-123000000D03*
%TD*%
D12*
%TO.C,U6*%
X185460000Y-107710000D03*
X183160000Y-107710000D03*
D13*
X183160000Y-114010000D03*
D12*
X180860000Y-107710000D03*
%TD*%
%TO.C,U5*%
X175072500Y-107800000D03*
X172772500Y-107800000D03*
D13*
X172772500Y-114100000D03*
D12*
X170472500Y-107800000D03*
%TD*%
%TO.C,U4*%
X164052500Y-107720000D03*
X161752500Y-107720000D03*
D13*
X161752500Y-114020000D03*
D12*
X159452500Y-107720000D03*
%TD*%
%TO.C,U3*%
X149602500Y-107900000D03*
X147302500Y-107900000D03*
D13*
X147302500Y-114200000D03*
D12*
X145002500Y-107900000D03*
%TD*%
%TO.C,U2*%
X139050000Y-107970000D03*
X136750000Y-107970000D03*
D13*
X136750000Y-114270000D03*
D12*
X134450000Y-107970000D03*
%TD*%
%TO.C,U1*%
X128612500Y-108120000D03*
X126312500Y-108120000D03*
D13*
X126312500Y-114420000D03*
D12*
X124012500Y-108120000D03*
%TD*%
D14*
%TO.C,R4*%
X189850000Y-115432500D03*
X189850000Y-112507500D03*
%TD*%
D15*
%TO.C,R3*%
X189750000Y-107327500D03*
X189750000Y-110252500D03*
%TD*%
D14*
%TO.C,R2*%
X153720000Y-110312500D03*
X153720000Y-107387500D03*
%TD*%
%TO.C,R1*%
X153720000Y-115302500D03*
X153720000Y-112377500D03*
%TD*%
D16*
%TO.C,J1*%
X108180000Y-111420000D03*
D17*
X117180000Y-111420000D03*
D18*
X111180000Y-111420000D03*
D19*
X110180000Y-106920000D03*
X110180000Y-115920000D03*
%TD*%
D20*
%TO.C,C6*%
X184300000Y-116410000D03*
X182400000Y-116410000D03*
%TD*%
D21*
%TO.C,C5*%
X172050000Y-116510000D03*
X173950000Y-116510000D03*
%TD*%
%TO.C,C4*%
X160900000Y-116470000D03*
X162800000Y-116470000D03*
%TD*%
%TO.C,C3*%
X146220000Y-116690000D03*
X148120000Y-116690000D03*
%TD*%
%TO.C,C2*%
X135780000Y-116590000D03*
X137680000Y-116590000D03*
%TD*%
%TO.C,C1*%
X125270000Y-116760000D03*
X127170000Y-116760000D03*
%TD*%
M02*
