%TF.GenerationSoftware,KiCad,Pcbnew,9.0.3*%
%TF.CreationDate,2025-11-02T19:13:38+05:00*%
%TF.ProjectId,zynq-7000-development-board,7a796e71-2d37-4303-9030-2d646576656c,rev?*%
%TF.SameCoordinates,Original*%
%TF.FileFunction,Copper,L2,Bot*%
%TF.FilePolarity,Positive*%
%FSLAX46Y46*%
G04 Gerber Fmt 4.6, Leading zero omitted, Abs format (unit mm)*
G04 Created by KiCad (PCBNEW 9.0.3) date 2025-11-02 19:13:38*
%MOMM*%
%LPD*%
G01*
G04 APERTURE LIST*
%TA.AperFunction,ComponentPad*%
%ADD10C,1.700000*%
%TD*%
%TA.AperFunction,ComponentPad*%
%ADD11R,1.700000X1.700000*%
%TD*%
%TA.AperFunction,ComponentPad*%
%ADD12R,2.000000X4.000000*%
%TD*%
%TA.AperFunction,ComponentPad*%
%ADD13O,2.000000X3.300000*%
%TD*%
%TA.AperFunction,ComponentPad*%
%ADD14O,3.500000X2.000000*%
%TD*%
%TA.AperFunction,ViaPad*%
%ADD15C,0.600000*%
%TD*%
%TA.AperFunction,Conductor*%
%ADD16C,0.200000*%
%TD*%
G04 APERTURE END LIST*
D10*
%TO.P,J2,8,Pin_8*%
%TO.N,GND*%
X196050000Y-105220000D03*
%TO.P,J2,7,Pin_7*%
%TO.N,12V*%
X196050000Y-107760000D03*
%TO.P,J2,6,Pin_6*%
%TO.N,5V*%
X196050000Y-110300000D03*
%TO.P,J2,5,Pin_5*%
%TO.N,3.3V*%
X196050000Y-112840000D03*
%TO.P,J2,4,Pin_4*%
%TO.N,1.8V*%
X196050000Y-115380000D03*
%TO.P,J2,3,Pin_3*%
%TO.N,1.5V*%
X196050000Y-117920000D03*
%TO.P,J2,2,Pin_2*%
%TO.N,1.25V*%
X196050000Y-120460000D03*
D11*
%TO.P,J2,1,Pin_1*%
%TO.N,1V*%
X196050000Y-123000000D03*
%TD*%
D12*
%TO.P,J1,1*%
%TO.N,12V*%
X117180000Y-111420000D03*
D13*
%TO.P,J1,2*%
%TO.N,GND*%
X111180000Y-111420000D03*
D14*
%TO.P,J1,MP*%
%TO.N,N/C*%
X110180000Y-106920000D03*
X110180000Y-115920000D03*
%TD*%
D15*
%TO.N,GND*%
X188240000Y-112590000D03*
X180490000Y-116350000D03*
X163660000Y-109690000D03*
%TO.N,Net-(U3-VO)*%
X147440000Y-109320000D03*
X147300000Y-110690000D03*
%TO.N,5V*%
X174110000Y-110080000D03*
%TO.N,1.8V*%
X125500000Y-118030000D03*
X125970000Y-122670000D03*
%TO.N,1.5V*%
X135790000Y-117790000D03*
X140440000Y-123850000D03*
%TO.N,1.25V*%
X185430000Y-116670000D03*
%TO.N,1V*%
X155200000Y-112380000D03*
%TD*%
D16*
%TO.N,GND*%
X163660000Y-109690000D02*
X163710000Y-109740000D01*
%TO.N,Net-(U3-VO)*%
X147300000Y-110690000D02*
X147300000Y-109460000D01*
X147300000Y-109460000D02*
X147440000Y-109320000D01*
%TO.N,12V*%
X196050000Y-107760000D02*
X175580057Y-107760000D01*
X175580057Y-107760000D02*
X171920057Y-111420000D01*
X171920057Y-111420000D02*
X117180000Y-111420000D01*
%TO.N,5V*%
X174330000Y-110300000D02*
X174110000Y-110080000D01*
X196050000Y-110300000D02*
X174330000Y-110300000D01*
%TO.N,1.8V*%
X125500000Y-122200000D02*
X125500000Y-118030000D01*
X125970000Y-122670000D02*
X125500000Y-122200000D01*
%TO.N,1.5V*%
X135790000Y-119200000D02*
X135790000Y-117790000D01*
X140440000Y-123850000D02*
X135790000Y-119200000D01*
%TO.N,1.25V*%
X192260000Y-116670000D02*
X185430000Y-116670000D01*
X196050000Y-120460000D02*
X192260000Y-116670000D01*
%TO.N,1V*%
X165820000Y-123000000D02*
X155200000Y-112380000D01*
X196050000Y-123000000D02*
X165820000Y-123000000D01*
%TD*%
%TA.AperFunction,Conductor*%
%TO.N,GND*%
G36*
X173591503Y-110700302D02*
G01*
X173617060Y-110713382D01*
X173730814Y-110789390D01*
X173730827Y-110789397D01*
X173876498Y-110849735D01*
X173876503Y-110849737D01*
X174031153Y-110880499D01*
X174031156Y-110880500D01*
X174031158Y-110880500D01*
X174159973Y-110880500D01*
X174192066Y-110884725D01*
X174201990Y-110887384D01*
X174250943Y-110900501D01*
X174250945Y-110900501D01*
X174416653Y-110900501D01*
X174416669Y-110900500D01*
X194764281Y-110900500D01*
X194831320Y-110920185D01*
X194874765Y-110968205D01*
X194894947Y-111007814D01*
X194894948Y-111007815D01*
X195019890Y-111179786D01*
X195170213Y-111330109D01*
X195342182Y-111455050D01*
X195350946Y-111459516D01*
X195401742Y-111507491D01*
X195418536Y-111575312D01*
X195395998Y-111641447D01*
X195350946Y-111680484D01*
X195342182Y-111684949D01*
X195170213Y-111809890D01*
X195019890Y-111960213D01*
X194894951Y-112132179D01*
X194798444Y-112321585D01*
X194732753Y-112523760D01*
X194699500Y-112733713D01*
X194699500Y-112946286D01*
X194731723Y-113149738D01*
X194732754Y-113156243D01*
X194740680Y-113180638D01*
X194798444Y-113358414D01*
X194894951Y-113547820D01*
X195019890Y-113719786D01*
X195170213Y-113870109D01*
X195342182Y-113995050D01*
X195350946Y-113999516D01*
X195401742Y-114047491D01*
X195418536Y-114115312D01*
X195395998Y-114181447D01*
X195350946Y-114220484D01*
X195342182Y-114224949D01*
X195170213Y-114349890D01*
X195019890Y-114500213D01*
X194894951Y-114672179D01*
X194798444Y-114861585D01*
X194732753Y-115063760D01*
X194699500Y-115273713D01*
X194699500Y-115486286D01*
X194732753Y-115696239D01*
X194798444Y-115898414D01*
X194894951Y-116087820D01*
X195019890Y-116259786D01*
X195170213Y-116410109D01*
X195342182Y-116535050D01*
X195350946Y-116539516D01*
X195401742Y-116587491D01*
X195418536Y-116655312D01*
X195395998Y-116721447D01*
X195350946Y-116760484D01*
X195342182Y-116764949D01*
X195170213Y-116889890D01*
X195019890Y-117040213D01*
X194894951Y-117212179D01*
X194798444Y-117401585D01*
X194732753Y-117603760D01*
X194699500Y-117813713D01*
X194699500Y-117960903D01*
X194679815Y-118027942D01*
X194627011Y-118073697D01*
X194557853Y-118083641D01*
X194494297Y-118054616D01*
X194487819Y-118048584D01*
X192747590Y-116308355D01*
X192747588Y-116308352D01*
X192628717Y-116189481D01*
X192628716Y-116189480D01*
X192541904Y-116139360D01*
X192541904Y-116139359D01*
X192541900Y-116139358D01*
X192491785Y-116110423D01*
X192339057Y-116069499D01*
X192180943Y-116069499D01*
X192173347Y-116069499D01*
X192173331Y-116069500D01*
X186009766Y-116069500D01*
X185942727Y-116049815D01*
X185940875Y-116048602D01*
X185809185Y-115960609D01*
X185809172Y-115960602D01*
X185663501Y-115900264D01*
X185663489Y-115900261D01*
X185508845Y-115869500D01*
X185508842Y-115869500D01*
X185351158Y-115869500D01*
X185351155Y-115869500D01*
X185196510Y-115900261D01*
X185196498Y-115900264D01*
X185050827Y-115960602D01*
X185050814Y-115960609D01*
X184919711Y-116048210D01*
X184919707Y-116048213D01*
X184808213Y-116159707D01*
X184808210Y-116159711D01*
X184720609Y-116290814D01*
X184720602Y-116290827D01*
X184660264Y-116436498D01*
X184660261Y-116436510D01*
X184629500Y-116591153D01*
X184629500Y-116748846D01*
X184660261Y-116903489D01*
X184660264Y-116903501D01*
X184720602Y-117049172D01*
X184720609Y-117049185D01*
X184808210Y-117180288D01*
X184808213Y-117180292D01*
X184919707Y-117291786D01*
X184919711Y-117291789D01*
X185050814Y-117379390D01*
X185050827Y-117379397D01*
X185150060Y-117420500D01*
X185196503Y-117439737D01*
X185351153Y-117470499D01*
X185351156Y-117470500D01*
X185351158Y-117470500D01*
X185508844Y-117470500D01*
X185508845Y-117470499D01*
X185663497Y-117439737D01*
X185809179Y-117379394D01*
X185897157Y-117320609D01*
X185940875Y-117291398D01*
X186007553Y-117270520D01*
X186009766Y-117270500D01*
X191959903Y-117270500D01*
X192026942Y-117290185D01*
X192047584Y-117306819D01*
X194716241Y-119975476D01*
X194749726Y-120036799D01*
X194746492Y-120101473D01*
X194732753Y-120143757D01*
X194699500Y-120353713D01*
X194699500Y-120566286D01*
X194732753Y-120776239D01*
X194798444Y-120978414D01*
X194894951Y-121167820D01*
X195019890Y-121339786D01*
X195133430Y-121453326D01*
X195166915Y-121514649D01*
X195161931Y-121584341D01*
X195120059Y-121640274D01*
X195089083Y-121657189D01*
X194957669Y-121706203D01*
X194957664Y-121706206D01*
X194842455Y-121792452D01*
X194842452Y-121792455D01*
X194756206Y-121907664D01*
X194756202Y-121907671D01*
X194705908Y-122042517D01*
X194699501Y-122102116D01*
X194699501Y-122102123D01*
X194699500Y-122102135D01*
X194699500Y-122275500D01*
X194679815Y-122342539D01*
X194627011Y-122388294D01*
X194575500Y-122399500D01*
X166120097Y-122399500D01*
X166053058Y-122379815D01*
X166032416Y-122363181D01*
X156034574Y-112365339D01*
X156025511Y-112348741D01*
X156012380Y-112335133D01*
X156001974Y-112305638D01*
X156001089Y-112304016D01*
X156000638Y-112301849D01*
X155974151Y-112168691D01*
X155980378Y-112099100D01*
X156023241Y-112043922D01*
X156089131Y-112020678D01*
X156095768Y-112020500D01*
X171833388Y-112020500D01*
X171833404Y-112020501D01*
X171841000Y-112020501D01*
X171999111Y-112020501D01*
X171999114Y-112020501D01*
X172151842Y-111979577D01*
X172201961Y-111950639D01*
X172288773Y-111900520D01*
X172400577Y-111788716D01*
X172400577Y-111788714D01*
X172410785Y-111778507D01*
X172410786Y-111778504D01*
X173460490Y-110728801D01*
X173521811Y-110695318D01*
X173591503Y-110700302D01*
G37*
%TD.AperFunction*%
%TA.AperFunction,Conductor*%
G36*
X197822539Y-103280185D02*
G01*
X197868294Y-103332989D01*
X197879500Y-103384500D01*
X197879500Y-124655500D01*
X197859815Y-124722539D01*
X197807011Y-124768294D01*
X197755500Y-124779500D01*
X140898541Y-124779500D01*
X140831502Y-124759815D01*
X140785747Y-124707011D01*
X140775803Y-124637853D01*
X140804828Y-124574297D01*
X140829650Y-124552398D01*
X140881661Y-124517644D01*
X140950289Y-124471789D01*
X141061789Y-124360289D01*
X141149394Y-124229179D01*
X141209737Y-124083497D01*
X141240500Y-123928842D01*
X141240500Y-123771158D01*
X141240500Y-123771155D01*
X141240499Y-123771153D01*
X141209738Y-123616510D01*
X141209737Y-123616503D01*
X141203109Y-123600501D01*
X141149397Y-123470827D01*
X141149390Y-123470814D01*
X141061789Y-123339711D01*
X141061786Y-123339707D01*
X140950292Y-123228213D01*
X140950288Y-123228210D01*
X140819185Y-123140609D01*
X140819172Y-123140602D01*
X140673501Y-123080264D01*
X140673491Y-123080261D01*
X140518149Y-123049361D01*
X140456238Y-123016976D01*
X140454660Y-123015425D01*
X136426819Y-118987584D01*
X136393334Y-118926261D01*
X136390500Y-118899903D01*
X136390500Y-118369765D01*
X136410185Y-118302726D01*
X136411398Y-118300874D01*
X136499390Y-118169185D01*
X136499390Y-118169184D01*
X136499394Y-118169179D01*
X136559737Y-118023497D01*
X136590500Y-117868842D01*
X136590500Y-117711158D01*
X136590500Y-117711155D01*
X136590499Y-117711153D01*
X136559738Y-117556510D01*
X136559737Y-117556503D01*
X136559735Y-117556498D01*
X136499397Y-117410827D01*
X136499390Y-117410814D01*
X136411789Y-117279711D01*
X136411786Y-117279707D01*
X136300292Y-117168213D01*
X136300288Y-117168210D01*
X136169185Y-117080609D01*
X136169172Y-117080602D01*
X136023501Y-117020264D01*
X136023489Y-117020261D01*
X135868845Y-116989500D01*
X135868842Y-116989500D01*
X135711158Y-116989500D01*
X135711155Y-116989500D01*
X135556510Y-117020261D01*
X135556498Y-117020264D01*
X135410827Y-117080602D01*
X135410814Y-117080609D01*
X135279711Y-117168210D01*
X135279707Y-117168213D01*
X135168213Y-117279707D01*
X135168210Y-117279711D01*
X135080609Y-117410814D01*
X135080602Y-117410827D01*
X135020264Y-117556498D01*
X135020261Y-117556510D01*
X134989500Y-117711153D01*
X134989500Y-117868846D01*
X135020261Y-118023489D01*
X135020264Y-118023501D01*
X135080602Y-118169172D01*
X135080609Y-118169185D01*
X135168602Y-118300874D01*
X135189480Y-118367551D01*
X135189500Y-118369765D01*
X135189500Y-119113330D01*
X135189499Y-119113348D01*
X135189499Y-119279054D01*
X135189498Y-119279054D01*
X135230423Y-119431785D01*
X135259358Y-119481900D01*
X135259359Y-119481904D01*
X135259360Y-119481904D01*
X135309479Y-119568714D01*
X135309481Y-119568717D01*
X135428349Y-119687585D01*
X135428355Y-119687590D01*
X139605425Y-123864660D01*
X139638910Y-123925983D01*
X139639361Y-123928149D01*
X139670261Y-124083491D01*
X139670264Y-124083501D01*
X139730602Y-124229172D01*
X139730609Y-124229185D01*
X139818210Y-124360288D01*
X139818213Y-124360292D01*
X139929707Y-124471786D01*
X139929711Y-124471789D01*
X140050350Y-124552398D01*
X140095155Y-124606010D01*
X140103862Y-124675335D01*
X140073708Y-124738363D01*
X140014264Y-124775082D01*
X139981459Y-124779500D01*
X104964500Y-124779500D01*
X104897461Y-124759815D01*
X104851706Y-124707011D01*
X104840500Y-124655500D01*
X104840500Y-117951153D01*
X124699500Y-117951153D01*
X124699500Y-118108846D01*
X124730261Y-118263489D01*
X124730264Y-118263501D01*
X124790602Y-118409172D01*
X124790609Y-118409185D01*
X124878602Y-118540874D01*
X124899480Y-118607551D01*
X124899500Y-118609765D01*
X124899500Y-122113330D01*
X124899499Y-122113348D01*
X124899499Y-122279054D01*
X124899498Y-122279054D01*
X124940424Y-122431789D01*
X124940425Y-122431790D01*
X124968407Y-122480255D01*
X124968409Y-122480257D01*
X125019479Y-122568714D01*
X125019481Y-122568717D01*
X125135426Y-122684662D01*
X125168911Y-122745985D01*
X125169362Y-122748151D01*
X125200261Y-122903491D01*
X125200264Y-122903501D01*
X125260602Y-123049172D01*
X125260609Y-123049185D01*
X125348210Y-123180288D01*
X125348213Y-123180292D01*
X125459707Y-123291786D01*
X125459711Y-123291789D01*
X125590814Y-123379390D01*
X125590827Y-123379397D01*
X125736498Y-123439735D01*
X125736503Y-123439737D01*
X125891153Y-123470499D01*
X125891156Y-123470500D01*
X125891158Y-123470500D01*
X126048844Y-123470500D01*
X126048845Y-123470499D01*
X126203497Y-123439737D01*
X126349179Y-123379394D01*
X126480289Y-123291789D01*
X126591789Y-123180289D01*
X126679394Y-123049179D01*
X126739737Y-122903497D01*
X126770500Y-122748842D01*
X126770500Y-122591158D01*
X126770500Y-122591155D01*
X126770499Y-122591153D01*
X126739738Y-122436510D01*
X126739737Y-122436503D01*
X126724410Y-122399500D01*
X126679397Y-122290827D01*
X126679390Y-122290814D01*
X126591789Y-122159711D01*
X126591786Y-122159707D01*
X126480292Y-122048213D01*
X126480288Y-122048210D01*
X126349185Y-121960609D01*
X126349172Y-121960602D01*
X126203501Y-121900264D01*
X126203487Y-121900260D01*
X126200304Y-121899627D01*
X126198791Y-121898835D01*
X126197665Y-121898494D01*
X126197729Y-121898280D01*
X126138394Y-121867240D01*
X126103822Y-121806523D01*
X126100500Y-121778011D01*
X126100500Y-118609765D01*
X126120185Y-118542726D01*
X126121398Y-118540874D01*
X126209390Y-118409185D01*
X126209390Y-118409184D01*
X126209394Y-118409179D01*
X126269737Y-118263497D01*
X126300500Y-118108842D01*
X126300500Y-117951158D01*
X126300500Y-117951155D01*
X126300499Y-117951153D01*
X126284127Y-117868846D01*
X126269737Y-117796503D01*
X126269735Y-117796498D01*
X126209397Y-117650827D01*
X126209390Y-117650814D01*
X126121789Y-117519711D01*
X126121786Y-117519707D01*
X126010292Y-117408213D01*
X126010288Y-117408210D01*
X125879185Y-117320609D01*
X125879172Y-117320602D01*
X125733501Y-117260264D01*
X125733489Y-117260261D01*
X125578845Y-117229500D01*
X125578842Y-117229500D01*
X125421158Y-117229500D01*
X125421155Y-117229500D01*
X125266510Y-117260261D01*
X125266498Y-117260264D01*
X125120827Y-117320602D01*
X125120814Y-117320609D01*
X124989711Y-117408210D01*
X124989707Y-117408213D01*
X124878213Y-117519707D01*
X124878210Y-117519711D01*
X124790609Y-117650814D01*
X124790602Y-117650827D01*
X124730264Y-117796498D01*
X124730261Y-117796510D01*
X124699500Y-117951153D01*
X104840500Y-117951153D01*
X104840500Y-115801902D01*
X107929500Y-115801902D01*
X107929500Y-116038097D01*
X107966446Y-116271368D01*
X108039433Y-116495996D01*
X108127300Y-116668443D01*
X108146657Y-116706433D01*
X108285483Y-116897510D01*
X108452490Y-117064517D01*
X108643567Y-117203343D01*
X108694903Y-117229500D01*
X108854003Y-117310566D01*
X108854005Y-117310566D01*
X108854008Y-117310568D01*
X108974412Y-117349689D01*
X109078631Y-117383553D01*
X109311903Y-117420500D01*
X109311908Y-117420500D01*
X111048097Y-117420500D01*
X111281368Y-117383553D01*
X111294180Y-117379390D01*
X111505992Y-117310568D01*
X111716433Y-117203343D01*
X111907510Y-117064517D01*
X112074517Y-116897510D01*
X112213343Y-116706433D01*
X112320568Y-116495992D01*
X112393553Y-116271368D01*
X112411238Y-116159711D01*
X112430500Y-116038097D01*
X112430500Y-115801902D01*
X112393553Y-115568631D01*
X112320566Y-115344003D01*
X112213342Y-115133566D01*
X112074517Y-114942490D01*
X111907510Y-114775483D01*
X111716433Y-114636657D01*
X111505996Y-114529433D01*
X111281368Y-114456446D01*
X111048097Y-114419500D01*
X111048092Y-114419500D01*
X109311908Y-114419500D01*
X109311903Y-114419500D01*
X109078631Y-114456446D01*
X108854003Y-114529433D01*
X108643566Y-114636657D01*
X108594675Y-114672179D01*
X108452490Y-114775483D01*
X108452488Y-114775485D01*
X108452487Y-114775485D01*
X108285485Y-114942487D01*
X108285485Y-114942488D01*
X108285483Y-114942490D01*
X108225862Y-115024550D01*
X108146657Y-115133566D01*
X108039433Y-115344003D01*
X107966446Y-115568631D01*
X107929500Y-115801902D01*
X104840500Y-115801902D01*
X104840500Y-111316530D01*
X107129500Y-111316530D01*
X107129500Y-111523469D01*
X107169868Y-111726412D01*
X107169870Y-111726420D01*
X107249058Y-111917596D01*
X107364024Y-112089657D01*
X107510342Y-112235975D01*
X107510345Y-112235977D01*
X107682402Y-112350941D01*
X107873580Y-112430130D01*
X108074519Y-112470099D01*
X108076530Y-112470499D01*
X108076534Y-112470500D01*
X108076535Y-112470500D01*
X108283466Y-112470500D01*
X108283467Y-112470499D01*
X108486420Y-112430130D01*
X108677598Y-112350941D01*
X108849655Y-112235977D01*
X108995977Y-112089655D01*
X109110941Y-111917598D01*
X109190130Y-111726420D01*
X109230500Y-111523465D01*
X109230500Y-111316535D01*
X109190130Y-111113580D01*
X109110941Y-110922402D01*
X108995977Y-110750345D01*
X108995975Y-110750342D01*
X108897580Y-110651947D01*
X109680000Y-110651947D01*
X109680000Y-111170000D01*
X110680000Y-111170000D01*
X110680000Y-111670000D01*
X109680000Y-111670000D01*
X109680000Y-112188052D01*
X109716934Y-112421247D01*
X109789897Y-112645802D01*
X109897085Y-112856171D01*
X110035866Y-113047186D01*
X110202813Y-113214133D01*
X110393828Y-113352914D01*
X110604195Y-113460102D01*
X110828744Y-113533063D01*
X110828750Y-113533065D01*
X110930000Y-113549101D01*
X110930000Y-112503012D01*
X110987007Y-112535925D01*
X111114174Y-112570000D01*
X111245826Y-112570000D01*
X111372993Y-112535925D01*
X111430000Y-112503012D01*
X111430000Y-113549100D01*
X111531249Y-113533065D01*
X111531255Y-113533063D01*
X111755804Y-113460102D01*
X111966171Y-113352914D01*
X112157186Y-113214133D01*
X112324133Y-113047186D01*
X112462914Y-112856171D01*
X112570102Y-112645802D01*
X112643065Y-112421247D01*
X112680000Y-112188052D01*
X112680000Y-111670000D01*
X111680000Y-111670000D01*
X111680000Y-111170000D01*
X112680000Y-111170000D01*
X112680000Y-110651947D01*
X112643065Y-110418752D01*
X112570102Y-110194197D01*
X112462914Y-109983828D01*
X112324133Y-109792813D01*
X112157186Y-109625866D01*
X111966171Y-109487085D01*
X111950874Y-109479291D01*
X111755802Y-109379897D01*
X111731913Y-109372135D01*
X115679500Y-109372135D01*
X115679500Y-113467870D01*
X115679501Y-113467876D01*
X115685908Y-113527483D01*
X115736202Y-113662328D01*
X115736206Y-113662335D01*
X115822452Y-113777544D01*
X115822455Y-113777547D01*
X115937664Y-113863793D01*
X115937671Y-113863797D01*
X116072517Y-113914091D01*
X116072516Y-113914091D01*
X116079444Y-113914835D01*
X116132127Y-113920500D01*
X118227872Y-113920499D01*
X118287483Y-113914091D01*
X118422331Y-113863796D01*
X118537546Y-113777546D01*
X118623796Y-113662331D01*
X118674091Y-113527483D01*
X118680500Y-113467873D01*
X118680500Y-112144500D01*
X118700185Y-112077461D01*
X118752989Y-112031706D01*
X118804500Y-112020500D01*
X154304232Y-112020500D01*
X154371271Y-112040185D01*
X154417026Y-112092989D01*
X154426970Y-112162147D01*
X154425849Y-112168692D01*
X154399500Y-112301155D01*
X154399500Y-112458846D01*
X154430261Y-112613489D01*
X154430264Y-112613501D01*
X154490602Y-112759172D01*
X154490609Y-112759185D01*
X154578210Y-112890288D01*
X154578213Y-112890292D01*
X154689707Y-113001786D01*
X154689711Y-113001789D01*
X154820814Y-113089390D01*
X154820827Y-113089397D01*
X154966498Y-113149735D01*
X154966503Y-113149737D01*
X155031147Y-113162595D01*
X155121849Y-113180638D01*
X155183760Y-113213023D01*
X155185339Y-113214574D01*
X165335139Y-123364374D01*
X165335149Y-123364385D01*
X165339479Y-123368715D01*
X165339480Y-123368716D01*
X165451284Y-123480520D01*
X165538095Y-123530639D01*
X165538097Y-123530641D01*
X165576151Y-123552611D01*
X165588215Y-123559577D01*
X165740943Y-123600501D01*
X165740946Y-123600501D01*
X165906653Y-123600501D01*
X165906669Y-123600500D01*
X194575501Y-123600500D01*
X194642540Y-123620185D01*
X194688295Y-123672989D01*
X194699501Y-123724500D01*
X194699501Y-123897876D01*
X194705908Y-123957483D01*
X194756202Y-124092328D01*
X194756206Y-124092335D01*
X194842452Y-124207544D01*
X194842455Y-124207547D01*
X194957664Y-124293793D01*
X194957671Y-124293797D01*
X195092517Y-124344091D01*
X195092516Y-124344091D01*
X195099444Y-124344835D01*
X195152127Y-124350500D01*
X196947872Y-124350499D01*
X197007483Y-124344091D01*
X197142331Y-124293796D01*
X197257546Y-124207546D01*
X197343796Y-124092331D01*
X197394091Y-123957483D01*
X197400500Y-123897873D01*
X197400499Y-122102128D01*
X197394091Y-122042517D01*
X197363541Y-121960609D01*
X197343797Y-121907671D01*
X197343793Y-121907664D01*
X197257547Y-121792455D01*
X197257544Y-121792452D01*
X197142335Y-121706206D01*
X197142328Y-121706202D01*
X197010917Y-121657189D01*
X196954983Y-121615318D01*
X196930566Y-121549853D01*
X196945418Y-121481580D01*
X196966563Y-121453332D01*
X197080104Y-121339792D01*
X197205051Y-121167816D01*
X197301557Y-120978412D01*
X197367246Y-120776243D01*
X197400500Y-120566287D01*
X197400500Y-120353713D01*
X197367246Y-120143757D01*
X197301557Y-119941588D01*
X197205051Y-119752184D01*
X197205049Y-119752181D01*
X197205048Y-119752179D01*
X197080109Y-119580213D01*
X196929786Y-119429890D01*
X196757820Y-119304951D01*
X196757115Y-119304591D01*
X196749054Y-119300485D01*
X196698259Y-119252512D01*
X196681463Y-119184692D01*
X196703999Y-119118556D01*
X196749054Y-119079515D01*
X196757816Y-119075051D01*
X196878205Y-118987584D01*
X196929786Y-118950109D01*
X196929788Y-118950106D01*
X196929792Y-118950104D01*
X197080104Y-118799792D01*
X197080106Y-118799788D01*
X197080109Y-118799786D01*
X197205048Y-118627820D01*
X197205047Y-118627820D01*
X197205051Y-118627816D01*
X197301557Y-118438412D01*
X197367246Y-118236243D01*
X197400500Y-118026287D01*
X197400500Y-117813713D01*
X197367246Y-117603757D01*
X197301557Y-117401588D01*
X197205051Y-117212184D01*
X197205049Y-117212181D01*
X197205048Y-117212179D01*
X197080109Y-117040213D01*
X196929786Y-116889890D01*
X196757820Y-116764951D01*
X196757115Y-116764591D01*
X196749054Y-116760485D01*
X196698259Y-116712512D01*
X196681463Y-116644692D01*
X196703999Y-116578556D01*
X196749054Y-116539515D01*
X196757816Y-116535051D01*
X196811571Y-116495996D01*
X196929786Y-116410109D01*
X196929788Y-116410106D01*
X196929792Y-116410104D01*
X197080104Y-116259792D01*
X197080106Y-116259788D01*
X197080109Y-116259786D01*
X197205048Y-116087820D01*
X197205047Y-116087820D01*
X197205051Y-116087816D01*
X197301557Y-115898412D01*
X197367246Y-115696243D01*
X197400500Y-115486287D01*
X197400500Y-115273713D01*
X197367246Y-115063757D01*
X197301557Y-114861588D01*
X197205051Y-114672184D01*
X197205049Y-114672181D01*
X197205048Y-114672179D01*
X197080109Y-114500213D01*
X196929786Y-114349890D01*
X196757820Y-114224951D01*
X196757115Y-114224591D01*
X196749054Y-114220485D01*
X196698259Y-114172512D01*
X196681463Y-114104692D01*
X196703999Y-114038556D01*
X196749054Y-113999515D01*
X196757816Y-113995051D01*
X196779789Y-113979086D01*
X196929786Y-113870109D01*
X196929788Y-113870106D01*
X196929792Y-113870104D01*
X197080104Y-113719792D01*
X197080106Y-113719788D01*
X197080109Y-113719786D01*
X197205048Y-113547820D01*
X197205047Y-113547820D01*
X197205051Y-113547816D01*
X197301557Y-113358412D01*
X197367246Y-113156243D01*
X197400500Y-112946287D01*
X197400500Y-112733713D01*
X197367246Y-112523757D01*
X197301557Y-112321588D01*
X197205051Y-112132184D01*
X197205049Y-112132181D01*
X197205048Y-112132179D01*
X197080109Y-111960213D01*
X196929786Y-111809890D01*
X196757820Y-111684951D01*
X196757115Y-111684591D01*
X196749054Y-111680485D01*
X196698259Y-111632512D01*
X196681463Y-111564692D01*
X196703999Y-111498556D01*
X196749054Y-111459515D01*
X196757816Y-111455051D01*
X196779789Y-111439086D01*
X196929786Y-111330109D01*
X196929788Y-111330106D01*
X196929792Y-111330104D01*
X197080104Y-111179792D01*
X197080106Y-111179788D01*
X197080109Y-111179786D01*
X197205048Y-111007820D01*
X197205047Y-111007820D01*
X197205051Y-111007816D01*
X197301557Y-110818412D01*
X197367246Y-110616243D01*
X197400500Y-110406287D01*
X197400500Y-110193713D01*
X197367246Y-109983757D01*
X197301557Y-109781588D01*
X197205051Y-109592184D01*
X197205049Y-109592181D01*
X197205048Y-109592179D01*
X197080109Y-109420213D01*
X196929786Y-109269890D01*
X196757820Y-109144951D01*
X196757115Y-109144591D01*
X196749054Y-109140485D01*
X196698259Y-109092512D01*
X196681463Y-109024692D01*
X196703999Y-108958556D01*
X196749054Y-108919515D01*
X196757816Y-108915051D01*
X196779789Y-108899086D01*
X196929786Y-108790109D01*
X196929788Y-108790106D01*
X196929792Y-108790104D01*
X197080104Y-108639792D01*
X197080106Y-108639788D01*
X197080109Y-108639786D01*
X197205048Y-108467820D01*
X197205047Y-108467820D01*
X197205051Y-108467816D01*
X197301557Y-108278412D01*
X197367246Y-108076243D01*
X197400500Y-107866287D01*
X197400500Y-107653713D01*
X197367246Y-107443757D01*
X197301557Y-107241588D01*
X197205051Y-107052184D01*
X197205049Y-107052181D01*
X197205048Y-107052179D01*
X197080109Y-106880213D01*
X196929786Y-106729890D01*
X196757817Y-106604949D01*
X196748504Y-106600204D01*
X196697707Y-106552230D01*
X196680912Y-106484409D01*
X196703449Y-106418274D01*
X196748507Y-106379232D01*
X196757555Y-106374622D01*
X196811716Y-106335270D01*
X196811717Y-106335270D01*
X196179408Y-105702962D01*
X196242993Y-105685925D01*
X196357007Y-105620099D01*
X196450099Y-105527007D01*
X196515925Y-105412993D01*
X196532962Y-105349408D01*
X197165270Y-105981717D01*
X197165270Y-105981716D01*
X197204622Y-105927554D01*
X197301095Y-105738217D01*
X197366757Y-105536130D01*
X197366757Y-105536127D01*
X197400000Y-105326246D01*
X197400000Y-105113753D01*
X197366757Y-104903872D01*
X197366757Y-104903869D01*
X197301095Y-104701782D01*
X197204624Y-104512449D01*
X197165270Y-104458282D01*
X197165269Y-104458282D01*
X196532962Y-105090590D01*
X196515925Y-105027007D01*
X196450099Y-104912993D01*
X196357007Y-104819901D01*
X196242993Y-104754075D01*
X196179409Y-104737037D01*
X196811716Y-104104728D01*
X196757550Y-104065375D01*
X196568217Y-103968904D01*
X196366129Y-103903242D01*
X196156246Y-103870000D01*
X195943754Y-103870000D01*
X195733872Y-103903242D01*
X195733869Y-103903242D01*
X195531782Y-103968904D01*
X195342439Y-104065380D01*
X195288282Y-104104727D01*
X195288282Y-104104728D01*
X195920591Y-104737037D01*
X195857007Y-104754075D01*
X195742993Y-104819901D01*
X195649901Y-104912993D01*
X195584075Y-105027007D01*
X195567037Y-105090591D01*
X194934728Y-104458282D01*
X194934727Y-104458282D01*
X194895380Y-104512439D01*
X194798904Y-104701782D01*
X194733242Y-104903869D01*
X194733242Y-104903872D01*
X194700000Y-105113753D01*
X194700000Y-105326246D01*
X194733242Y-105536127D01*
X194733242Y-105536130D01*
X194798904Y-105738217D01*
X194895375Y-105927550D01*
X194934728Y-105981716D01*
X195567037Y-105349408D01*
X195584075Y-105412993D01*
X195649901Y-105527007D01*
X195742993Y-105620099D01*
X195857007Y-105685925D01*
X195920590Y-105702962D01*
X195288282Y-106335269D01*
X195288282Y-106335270D01*
X195342452Y-106374626D01*
X195342451Y-106374626D01*
X195351495Y-106379234D01*
X195402292Y-106427208D01*
X195419087Y-106495029D01*
X195396550Y-106561164D01*
X195351499Y-106600202D01*
X195342182Y-106604949D01*
X195170213Y-106729890D01*
X195019890Y-106880213D01*
X194894948Y-107052184D01*
X194894947Y-107052185D01*
X194874765Y-107091795D01*
X194826791Y-107142591D01*
X194764281Y-107159500D01*
X175666727Y-107159500D01*
X175666711Y-107159499D01*
X175659115Y-107159499D01*
X175501000Y-107159499D01*
X175424636Y-107179961D01*
X175348271Y-107200423D01*
X175348266Y-107200426D01*
X175211347Y-107279475D01*
X175211339Y-107279481D01*
X171707641Y-110783181D01*
X171646318Y-110816666D01*
X171619960Y-110819500D01*
X148224500Y-110819500D01*
X148157461Y-110799815D01*
X148111706Y-110747011D01*
X148100500Y-110695500D01*
X148100500Y-110611155D01*
X148100499Y-110611153D01*
X148076213Y-110489059D01*
X148069737Y-110456503D01*
X148050421Y-110409870D01*
X148009397Y-110310827D01*
X148009390Y-110310814D01*
X147921398Y-110179125D01*
X147915747Y-110161078D01*
X147905523Y-110145169D01*
X147901071Y-110114207D01*
X147900520Y-110112447D01*
X147900500Y-110110234D01*
X147900500Y-110041297D01*
X147920185Y-109974258D01*
X147945836Y-109945443D01*
X147950279Y-109941795D01*
X147950289Y-109941789D01*
X148061789Y-109830289D01*
X148149394Y-109699179D01*
X148209737Y-109553497D01*
X148240500Y-109398842D01*
X148240500Y-109241158D01*
X148240500Y-109241155D01*
X148240499Y-109241153D01*
X148209737Y-109086503D01*
X148186333Y-109030000D01*
X148149397Y-108940827D01*
X148149390Y-108940814D01*
X148061789Y-108809711D01*
X148061786Y-108809707D01*
X147950292Y-108698213D01*
X147950288Y-108698210D01*
X147819185Y-108610609D01*
X147819172Y-108610602D01*
X147673501Y-108550264D01*
X147673489Y-108550261D01*
X147518845Y-108519500D01*
X147518842Y-108519500D01*
X147361158Y-108519500D01*
X147361155Y-108519500D01*
X147206510Y-108550261D01*
X147206498Y-108550264D01*
X147060827Y-108610602D01*
X147060814Y-108610609D01*
X146929711Y-108698210D01*
X146929707Y-108698213D01*
X146818213Y-108809707D01*
X146818210Y-108809711D01*
X146730609Y-108940814D01*
X146730602Y-108940827D01*
X146670264Y-109086498D01*
X146670261Y-109086510D01*
X146639500Y-109241153D01*
X146639500Y-109398846D01*
X146670261Y-109553489D01*
X146670263Y-109553497D01*
X146690061Y-109601293D01*
X146699500Y-109648746D01*
X146699500Y-110110234D01*
X146679815Y-110177273D01*
X146678602Y-110179125D01*
X146590609Y-110310814D01*
X146590602Y-110310827D01*
X146530264Y-110456498D01*
X146530261Y-110456510D01*
X146499500Y-110611153D01*
X146499500Y-110695500D01*
X146479815Y-110762539D01*
X146427011Y-110808294D01*
X146375500Y-110819500D01*
X118804499Y-110819500D01*
X118737460Y-110799815D01*
X118691705Y-110747011D01*
X118680499Y-110695500D01*
X118680499Y-109372129D01*
X118680498Y-109372123D01*
X118680497Y-109372116D01*
X118674091Y-109312517D01*
X118666027Y-109290897D01*
X118623797Y-109177671D01*
X118623793Y-109177664D01*
X118537547Y-109062455D01*
X118537544Y-109062452D01*
X118422335Y-108976206D01*
X118422328Y-108976202D01*
X118287482Y-108925908D01*
X118287483Y-108925908D01*
X118227883Y-108919501D01*
X118227881Y-108919500D01*
X118227873Y-108919500D01*
X118227864Y-108919500D01*
X116132129Y-108919500D01*
X116132123Y-108919501D01*
X116072516Y-108925908D01*
X115937671Y-108976202D01*
X115937664Y-108976206D01*
X115822455Y-109062452D01*
X115822452Y-109062455D01*
X115736206Y-109177664D01*
X115736202Y-109177671D01*
X115685908Y-109312517D01*
X115679501Y-109372116D01*
X115679501Y-109372123D01*
X115679500Y-109372135D01*
X111731913Y-109372135D01*
X111531247Y-109306934D01*
X111430000Y-109290897D01*
X111430000Y-110336988D01*
X111372993Y-110304075D01*
X111245826Y-110270000D01*
X111114174Y-110270000D01*
X110987007Y-110304075D01*
X110930000Y-110336988D01*
X110930000Y-109290897D01*
X110828752Y-109306934D01*
X110604197Y-109379897D01*
X110393828Y-109487085D01*
X110202813Y-109625866D01*
X110035866Y-109792813D01*
X109897085Y-109983828D01*
X109789897Y-110194197D01*
X109716934Y-110418752D01*
X109680000Y-110651947D01*
X108897580Y-110651947D01*
X108849657Y-110604024D01*
X108763626Y-110546541D01*
X108677598Y-110489059D01*
X108614669Y-110462993D01*
X108486420Y-110409870D01*
X108486412Y-110409868D01*
X108283469Y-110369500D01*
X108283465Y-110369500D01*
X108076535Y-110369500D01*
X108076530Y-110369500D01*
X107873587Y-110409868D01*
X107873579Y-110409870D01*
X107682403Y-110489058D01*
X107510342Y-110604024D01*
X107364024Y-110750342D01*
X107249058Y-110922403D01*
X107169870Y-111113579D01*
X107169868Y-111113587D01*
X107129500Y-111316530D01*
X104840500Y-111316530D01*
X104840500Y-106801902D01*
X107929500Y-106801902D01*
X107929500Y-107038097D01*
X107966446Y-107271368D01*
X108039433Y-107495996D01*
X108119795Y-107653713D01*
X108146657Y-107706433D01*
X108285483Y-107897510D01*
X108452490Y-108064517D01*
X108643567Y-108203343D01*
X108742991Y-108254002D01*
X108854003Y-108310566D01*
X108854005Y-108310566D01*
X108854008Y-108310568D01*
X108974412Y-108349689D01*
X109078631Y-108383553D01*
X109311903Y-108420500D01*
X109311908Y-108420500D01*
X111048097Y-108420500D01*
X111281368Y-108383553D01*
X111291734Y-108380185D01*
X111505992Y-108310568D01*
X111716433Y-108203343D01*
X111907510Y-108064517D01*
X112074517Y-107897510D01*
X112213343Y-107706433D01*
X112320568Y-107495992D01*
X112393553Y-107271368D01*
X112404789Y-107200426D01*
X112430500Y-107038097D01*
X112430500Y-106801902D01*
X112393553Y-106568631D01*
X112347601Y-106427208D01*
X112320568Y-106344008D01*
X112320566Y-106344005D01*
X112320566Y-106344003D01*
X112213342Y-106133566D01*
X112074517Y-105942490D01*
X111907510Y-105775483D01*
X111716433Y-105636657D01*
X111683936Y-105620099D01*
X111505996Y-105529433D01*
X111281368Y-105456446D01*
X111048097Y-105419500D01*
X111048092Y-105419500D01*
X109311908Y-105419500D01*
X109311903Y-105419500D01*
X109078631Y-105456446D01*
X108854003Y-105529433D01*
X108643566Y-105636657D01*
X108534550Y-105715862D01*
X108452490Y-105775483D01*
X108452488Y-105775485D01*
X108452487Y-105775485D01*
X108285485Y-105942487D01*
X108285485Y-105942488D01*
X108285483Y-105942490D01*
X108256984Y-105981716D01*
X108146657Y-106133566D01*
X108039433Y-106344003D01*
X107966446Y-106568631D01*
X107929500Y-106801902D01*
X104840500Y-106801902D01*
X104840500Y-103384500D01*
X104860185Y-103317461D01*
X104912989Y-103271706D01*
X104964500Y-103260500D01*
X197755500Y-103260500D01*
X197822539Y-103280185D01*
G37*
%TD.AperFunction*%
%TD*%
M02*
